{"title":"Carlos Alberto Prates Correia - 1987 - Cabaret Mineiro","uid":8442606,"size":734549700,"categoryP":"video","categoryS":"movies","magnet":"?xt=urn:btih:87f9f7e6ec2b7c8c11a9133fc60344db4617f1f5&amp;dn=Carlos+Alberto+Prates+Correia+-+1987+-+Cabaret+Mineiro&amp;tr=udp%3A%2F%2Ftracker.openbittorrent.com%3A80&amp;tr=udp%3A%2F%2Fopen.demonii.com%3A1337&amp;tr=udp%3A%2F%2Ftracker.coppersurfer.tk%3A6969&amp;tr=udp%3A%2F%2Fexodus.desync.com%3A6969","seeders":0,"leechers":0,"uploader":null,"files":1,"time":1367808700,"description":"Adventurer travels by train through the State of Minas Gerais, Brazil, meeting old and new lovers and remembers love-affairs of his youth. \n\nGeneral\nComplete name : cabaret mineiro.avi\nFormat : AVI\nFormat/Info : Audio Video Interleave\nFile size : 701 MiB\nDuration : 1h 8mn\nOverall bit rate : 1 439 Kbps\n\nVideo\nID : 0\nFormat : MPEG-4 Visual\nFormat profile : Simple@L3\nFormat settings, BVOP : No\nFormat settings, QPel : No\nFormat settings, GMC : No warppoints\nFormat settings, Matrix : Default (H.263)\nCodec ID : XVID\nCodec ID/Hint : XviD\nDuration : 1h 8mn\nBit rate : 1 297 Kbps\nWidth : 710 pixels\nHeight : 384 pixels\nDisplay aspect ratio : 1.644\nFrame rate : 29.970 fps\nColor space : YUV\nChroma subsampling : 4:2:0\nBit depth : 8 bits\nScan type : Progressive\nCompression mode : Lossy\nBits/(Pixel*Frame) : 0.159\nStream size : 631 MiB (90%)\nWriting library : XviD 1.1.2 (UTC 2006-11-01)\n\nAudio\nID : 1\nFormat : MPEG Audio\nFormat version : Version 1\nFormat profile : Layer 3\nMode : Joint stereo\nCodec ID : 55\nCodec ID/Hint : MP3\nDuration : 1h 8mn\nBit rate mode : Constant\nBit rate : 128 Kbps\nChannel(s) : 2 channels\nSampling rate : 48.0 KHz\nCompression mode : Lossy\nStream size : 62.3 MiB (9%)\nAlignment : Split accross interleaves\nInterleave, duration : 24 ms (0.72 video frame)\nWriting library : LAME3.98\n","torrent":{"xt":"urn:btih:87f9f7e6ec2b7c8c11a9133fc60344db4617f1f5","amp;dn":"Carlos+Alberto+Prates+Correia+-+1987+-+Cabaret+Mineiro","amp;tr":["udp%3A%2F%2Ftracker.openbittorrent.com%3A80","udp%3A%2F%2Fopen.demonii.com%3A1337","udp%3A%2F%2Ftracker.coppersurfer.tk%3A6969","udp%3A%2F%2Fexodus.desync.com%3A6969"],"infoHash":"87f9f7e6ec2b7c8c11a9133fc60344db4617f1f5","infoHashBuffer":{"type":"Buffer","data":[135,249,247,230,236,43,124,140,17,169,19,63,198,3,68,219,70,23,241,245]},"announce":[],"urlList":[]}}